<svg width="40" height="40" viewBox="0 0 40 40" fill="none" xmlns="http://www.w3.org/2000/svg">
<g style="mix-blend-mode:difference">
<path fill-rule="evenodd" clip-rule="evenodd" d="M17.5296 14.4697C17.8225 14.7626 17.8225 15.2374 17.5296 15.5303L13.8099 19.25L27.9993 19.25C28.4135 19.25 28.7493 19.5858 28.7493 20C28.7493 20.4142 28.4135 20.75 27.9993 20.75L13.8099 20.75L17.5296 24.4697C17.8225 24.7626 17.8225 25.2374 17.5296 25.5303C17.2367 25.8232 16.7618 25.8232 16.4689 25.5303L11.4689 20.5303C11.3283 20.3897 11.2493 20.1989 11.2493 20C11.2493 19.8011 11.3283 19.6103 11.4689 19.4697L16.4689 14.4697C16.7618 14.1768 17.2367 14.1768 17.5296 14.4697Z" fill="white" fill-opacity="0.8"/>
</g>
</svg>
