<svg width="36" height="37" viewBox="0 0 36 37" fill="none" xmlns="http://www.w3.org/2000/svg">
<path d="M32.6397 24.38L23.0397 7.1C21.7497 4.775 19.9647 3.5 17.9997 3.5C16.0347 3.5 14.2497 4.775 12.9597 7.1L3.35972 24.38C2.14472 26.585 2.00972 28.7 2.98472 30.365C3.95972 32.03 5.87972 32.945 8.39972 32.945H27.5997C30.1197 32.945 32.0397 32.03 33.0147 30.365C33.9897 28.7 33.8547 26.57 32.6397 24.38ZM16.8747 14C16.8747 13.385 17.3847 12.875 17.9997 12.875C18.6147 12.875 19.1247 13.385 19.1247 14V21.5C19.1247 22.115 18.6147 22.625 17.9997 22.625C17.3847 22.625 16.8747 22.115 16.8747 21.5V14ZM19.0647 27.065C18.9897 27.125 18.9147 27.185 18.8397 27.245C18.7497 27.305 18.6597 27.35 18.5697 27.38C18.4797 27.425 18.3897 27.455 18.2847 27.47C18.1947 27.485 18.0897 27.5 17.9997 27.5C17.9097 27.5 17.8047 27.485 17.6997 27.47C17.6097 27.455 17.5197 27.425 17.4297 27.38C17.3397 27.35 17.2497 27.305 17.1597 27.245C17.0847 27.185 17.0097 27.125 16.9347 27.065C16.6647 26.78 16.4997 26.39 16.4997 26C16.4997 25.61 16.6647 25.22 16.9347 24.935C17.0097 24.875 17.0847 24.815 17.1597 24.755C17.2497 24.695 17.3397 24.65 17.4297 24.62C17.5197 24.575 17.6097 24.545 17.6997 24.53C17.8947 24.485 18.1047 24.485 18.2847 24.53C18.3897 24.545 18.4797 24.575 18.5697 24.62C18.6597 24.65 18.7497 24.695 18.8397 24.755C18.9147 24.815 18.9897 24.875 19.0647 24.935C19.3347 25.22 19.4997 25.61 19.4997 26C19.4997 26.39 19.3347 26.78 19.0647 27.065Z" fill="#FED850"/>
</svg>
