<svg width="24" height="20" viewBox="0 0 24 20" fill="none" xmlns="http://www.w3.org/2000/svg">
<g clip-path="url(#clip0_935_456)">
<mask id="mask0_935_456" style="mask-type:luminance" maskUnits="userSpaceOnUse" x="0" y="0" width="24" height="20">
<path d="M23.667 0.962402H0.33374V19.0375H23.667V0.962402Z" fill="white"/>
</mask>
<g mask="url(#mask0_935_456)">
<path d="M20.0864 2.57195C18.5992 1.88956 17.0044 1.38681 15.337 1.09886C15.3066 1.09331 15.2763 1.10719 15.2606 1.13497C15.0555 1.49976 14.8283 1.97566 14.6692 2.34972C12.8758 2.08122 11.0915 2.08122 9.33488 2.34972C9.17575 1.96735 8.94031 1.49976 8.73429 1.13497C8.71865 1.10812 8.68831 1.09423 8.65795 1.09886C6.99142 1.38589 5.39664 1.88864 3.90853 2.57195C3.89565 2.5775 3.88461 2.58677 3.87728 2.5988C0.852315 7.11803 0.02365 11.5262 0.430165 15.8797C0.432005 15.901 0.443961 15.9214 0.460516 15.9343C2.4563 17.4 4.38956 18.2898 6.28692 18.8795C6.31729 18.8888 6.34946 18.8777 6.36879 18.8527C6.81761 18.2398 7.21769 17.5935 7.56072 16.9139C7.58097 16.8741 7.56164 16.8269 7.52027 16.8111C6.88567 16.5704 6.2814 16.2769 5.70014 15.9436C5.65416 15.9167 5.65048 15.851 5.69278 15.8195C5.8151 15.7278 5.93745 15.6325 6.05425 15.5362C6.07538 15.5186 6.10482 15.5149 6.12967 15.526C9.94831 17.2694 14.0824 17.2694 17.856 15.526C17.8809 15.514 17.9103 15.5177 17.9324 15.5352C18.0492 15.6315 18.1715 15.7278 18.2948 15.8195C18.3371 15.851 18.3343 15.9167 18.2883 15.9436C17.7071 16.2834 17.1028 16.5704 16.4673 16.8102C16.4259 16.8259 16.4075 16.8741 16.4277 16.9139C16.7781 17.5926 17.1782 18.2388 17.6188 18.8518C17.6372 18.8777 17.6703 18.8888 17.7006 18.8795C19.6072 18.2898 21.5404 17.4 23.5362 15.9343C23.5537 15.9214 23.5647 15.9019 23.5666 15.8806C24.0531 10.8475 22.7517 6.47548 20.1167 2.59972C20.1103 2.58677 20.0993 2.5775 20.0864 2.57195ZM8.13098 13.2289C6.9813 13.2289 6.034 12.1734 6.034 10.8771C6.034 9.58088 6.96293 8.52539 8.13098 8.52539C9.30819 8.52539 10.2463 9.59015 10.2279 10.8771C10.2279 12.1734 9.29899 13.2289 8.13098 13.2289ZM15.8842 13.2289C14.7345 13.2289 13.7872 12.1734 13.7872 10.8771C13.7872 9.58088 14.7161 8.52539 15.8842 8.52539C17.0614 8.52539 17.9995 9.59015 17.9811 10.8771C17.9811 12.1734 17.0614 13.2289 15.8842 13.2289Z" fill="#5865F2"/>
</g>
</g>
<defs>
<clipPath id="clip0_935_456">
<rect width="23.3333" height="18.0751" fill="white" transform="translate(0.333252 0.962402)"/>
</clipPath>
</defs>
</svg>
