<svg width="50" height="53" viewBox="0 0 50 53" fill="none" xmlns="http://www.w3.org/2000/svg">
<g filter="url(#filter0_dd_111_2113)">
<rect x="5" y="5" width="40" height="40" rx="20" fill="white" shape-rendering="crispEdges"/>
<rect x="11" y="11" width="28" height="28" rx="6" fill="white"/>
<path d="M35.0892 14.1201L26.3447 20.6148L27.9618 16.783L35.0892 14.1201Z" fill="#E2761B" stroke="#E2761B" stroke-width="0.0878845" stroke-linecap="round" stroke-linejoin="round"/>
<path d="M14.9023 14.1201L23.5765 20.6763L22.0386 16.783L14.9023 14.1201Z" fill="#E4761B" stroke="#E4761B" stroke-width="0.0878845" stroke-linecap="round" stroke-linejoin="round"/>
<path d="M31.9432 29.1748L29.6143 32.7429L34.5973 34.1139L36.0298 29.2539L31.9432 29.1748Z" fill="#E4761B" stroke="#E4761B" stroke-width="0.0878845" stroke-linecap="round" stroke-linejoin="round"/>
<path d="M13.9795 29.2539L15.4032 34.1139L20.3863 32.7429L18.0573 29.1748L13.9795 29.2539Z" fill="#E4761B" stroke="#E4761B" stroke-width="0.0878845" stroke-linecap="round" stroke-linejoin="round"/>
<path d="M20.1049 23.1458L18.7163 25.2462L23.6642 25.4659L23.4884 20.1489L20.1049 23.1458Z" fill="#E4761B" stroke="#E4761B" stroke-width="0.0878845" stroke-linecap="round" stroke-linejoin="round"/>
<path d="M29.8865 23.1458L26.459 20.0874L26.3447 25.4659L31.2838 25.2462L29.8865 23.1458Z" fill="#E4761B" stroke="#E4761B" stroke-width="0.0878845" stroke-linecap="round" stroke-linejoin="round"/>
<path d="M20.3862 32.7429L23.3567 31.2928L20.7905 29.2891L20.3862 32.7429Z" fill="#E4761B" stroke="#E4761B" stroke-width="0.0878845" stroke-linecap="round" stroke-linejoin="round"/>
<path d="M26.6348 31.2928L29.6141 32.7429L29.201 29.2891L26.6348 31.2928Z" fill="#E4761B" stroke="#E4761B" stroke-width="0.0878845" stroke-linecap="round" stroke-linejoin="round"/>
<path d="M29.6141 32.7426L26.6348 31.2925L26.8721 33.2347L26.8457 34.0521L29.6141 32.7426Z" fill="#D7C1B3" stroke="#D7C1B3" stroke-width="0.0878845" stroke-linecap="round" stroke-linejoin="round"/>
<path d="M20.3862 32.7426L23.1546 34.0521L23.137 33.2347L23.3567 31.2925L20.3862 32.7426Z" fill="#D7C1B3" stroke="#D7C1B3" stroke-width="0.0878845" stroke-linecap="round" stroke-linejoin="round"/>
<path d="M23.1986 28.0058L20.7202 27.2763L22.4691 26.4766L23.1986 28.0058Z" fill="#233447" stroke="#233447" stroke-width="0.0878845" stroke-linecap="round" stroke-linejoin="round"/>
<path d="M26.793 28.0058L27.5224 26.4766L29.2801 27.2763L26.793 28.0058Z" fill="#233447" stroke="#233447" stroke-width="0.0878845" stroke-linecap="round" stroke-linejoin="round"/>
<path d="M20.3861 32.7424L20.8079 29.1743L18.0571 29.2534L20.3861 32.7424Z" fill="#CD6116" stroke="#CD6116" stroke-width="0.0878845" stroke-linecap="round" stroke-linejoin="round"/>
<path d="M29.1919 29.1743L29.6137 32.7424L31.9427 29.2534L29.1919 29.1743Z" fill="#CD6116" stroke="#CD6116" stroke-width="0.0878845" stroke-linecap="round" stroke-linejoin="round"/>
<path d="M31.2838 25.2461L26.3447 25.4658L26.8017 28.0057L27.5312 26.4765L29.2889 27.2762L31.2838 25.2461Z" fill="#CD6116" stroke="#CD6116" stroke-width="0.0878845" stroke-linecap="round" stroke-linejoin="round"/>
<path d="M20.7201 27.2762L22.4778 26.4765L23.1984 28.0057L23.6642 25.4658L18.7163 25.2461L20.7201 27.2762Z" fill="#CD6116" stroke="#CD6116" stroke-width="0.0878845" stroke-linecap="round" stroke-linejoin="round"/>
<path d="M18.7163 25.2461L20.7904 29.2888L20.7201 27.2762L18.7163 25.2461Z" fill="#E4751F" stroke="#E4751F" stroke-width="0.0878845" stroke-linecap="round" stroke-linejoin="round"/>
<path d="M29.2891 27.2762L29.2012 29.2888L31.284 25.2461L29.2891 27.2762Z" fill="#E4751F" stroke="#E4751F" stroke-width="0.0878845" stroke-linecap="round" stroke-linejoin="round"/>
<path d="M23.664 25.4658L23.1982 28.0057L23.7783 31.0025L23.9101 27.0565L23.664 25.4658Z" fill="#E4751F" stroke="#E4751F" stroke-width="0.0878845" stroke-linecap="round" stroke-linejoin="round"/>
<path d="M26.3447 25.4658L26.1074 27.0477L26.2129 31.0025L26.8017 28.0057L26.3447 25.4658Z" fill="#E4751F" stroke="#E4751F" stroke-width="0.0878845" stroke-linecap="round" stroke-linejoin="round"/>
<path d="M26.8017 28.0058L26.2129 31.0027L26.6347 31.2927L29.201 29.2889L29.2888 27.2764L26.8017 28.0058Z" fill="#F6851B" stroke="#F6851B" stroke-width="0.0878845" stroke-linecap="round" stroke-linejoin="round"/>
<path d="M20.7202 27.2764L20.7905 29.2889L23.3568 31.2927L23.7786 31.0027L23.1986 28.0058L20.7202 27.2764Z" fill="#F6851B" stroke="#F6851B" stroke-width="0.0878845" stroke-linecap="round" stroke-linejoin="round"/>
<path d="M26.8457 34.0522L26.8721 33.2348L26.6524 33.0415H23.3391L23.137 33.2348L23.1546 34.0522L20.3862 32.7427L21.353 33.5336L23.3128 34.8958H26.6788L28.6474 33.5336L29.6141 32.7427L26.8457 34.0522Z" fill="#C0AD9E" stroke="#C0AD9E" stroke-width="0.0878845" stroke-linecap="round" stroke-linejoin="round"/>
<path d="M26.6345 31.2925L26.2127 31.0024H23.7783L23.3564 31.2925L23.1367 33.2347L23.3389 33.0414H26.6521L26.8718 33.2347L26.6345 31.2925Z" fill="#161616" stroke="#161616" stroke-width="0.0878845" stroke-linecap="round" stroke-linejoin="round"/>
<path d="M35.4584 21.0366L36.2054 17.4509L35.0893 14.1201L26.6348 20.3951L29.8865 23.1459L34.4829 24.4905L35.5023 23.304L35.0629 22.9877L35.766 22.3461L35.2211 21.9243L35.9242 21.3882L35.4584 21.0366Z" fill="#763D16" stroke="#763D16" stroke-width="0.0878845" stroke-linecap="round" stroke-linejoin="round"/>
<path d="M13.7949 17.4509L14.5419 21.0366L14.0674 21.3882L14.7704 21.9243L14.2343 22.3461L14.9374 22.9877L14.498 23.304L15.5087 24.4905L20.105 23.1459L23.3568 20.3951L14.9023 14.1201L13.7949 17.4509Z" fill="#763D16" stroke="#763D16" stroke-width="0.0878845" stroke-linecap="round" stroke-linejoin="round"/>
<path d="M34.4825 24.4901L29.8862 23.1455L31.2835 25.2459L29.2007 29.2886L31.9427 29.2535H36.0293L34.4825 24.4901Z" fill="#F6851B" stroke="#F6851B" stroke-width="0.0878845" stroke-linecap="round" stroke-linejoin="round"/>
<path d="M20.105 23.1455L15.5087 24.4901L13.9795 29.2535H18.0573L20.7905 29.2886L18.7165 25.2459L20.105 23.1455Z" fill="#F6851B" stroke="#F6851B" stroke-width="0.0878845" stroke-linecap="round" stroke-linejoin="round"/>
<path d="M26.3444 25.4657L26.6344 20.3948L27.9703 16.7827H22.0381L23.3564 20.3948L23.6639 25.4657L23.7694 27.0652L23.7782 31.0024H26.2126L26.2302 27.0652L26.3444 25.4657Z" fill="#F6851B" stroke="#F6851B" stroke-width="0.0878845" stroke-linecap="round" stroke-linejoin="round"/>
</g>
<defs>
<filter id="filter0_dd_111_2113" x="5.24521e-06" y="5.24521e-06" width="50" height="55" filterUnits="userSpaceOnUse" color-interpolation-filters="sRGB">
<feFlood flood-opacity="0" result="BackgroundImageFix"/>
<feColorMatrix in="SourceAlpha" type="matrix" values="0 0 0 0 0 0 0 0 0 0 0 0 0 0 0 0 0 0 127 0" result="hardAlpha"/>
<feOffset dy="4.99999"/>
<feGaussianBlur stdDeviation="2.5"/>
<feComposite in2="hardAlpha" operator="out"/>
<feColorMatrix type="matrix" values="0 0 0 0 0.0627451 0 0 0 0 0.0627451 0 0 0 0 0.0627451 0 0 0 0.05 0"/>
<feBlend mode="normal" in2="BackgroundImageFix" result="effect1_dropShadow_111_2113"/>
<feColorMatrix in="SourceAlpha" type="matrix" values="0 0 0 0 0 0 0 0 0 0 0 0 0 0 0 0 0 0 127 0" result="hardAlpha"/>
<feOffset/>
<feGaussianBlur stdDeviation="2.5"/>
<feComposite in2="hardAlpha" operator="out"/>
<feColorMatrix type="matrix" values="0 0 0 0 0.0627451 0 0 0 0 0.0627451 0 0 0 0 0.0627451 0 0 0 0.1 0"/>
<feBlend mode="normal" in2="effect1_dropShadow_111_2113" result="effect2_dropShadow_111_2113"/>
<feBlend mode="normal" in="SourceGraphic" in2="effect2_dropShadow_111_2113" result="shape"/>
</filter>
</defs>
</svg>
