<svg width="50" height="53" viewBox="0 0 50 53" fill="none" xmlns="http://www.w3.org/2000/svg">
<g filter="url(#filter0_dd_111_2116)">
<rect x="5" y="5" width="40" height="40" rx="20" fill="#3B99FC" shape-rendering="crispEdges"/>
<rect x="11" y="11" width="28" height="28" rx="6" fill="#3B99FC"/>
<path d="M19.3897 21.3737C22.4882 18.2752 27.5118 18.2752 30.6103 21.3737L30.9832 21.7466C31.1382 21.9015 31.1382 22.1527 30.9832 22.3076L29.7076 23.5833C29.6301 23.6607 29.5045 23.6607 29.4271 23.5833L28.9139 23.0701C26.7523 20.9085 23.2477 20.9085 21.0861 23.0701L20.5366 23.6197C20.4591 23.6971 20.3335 23.6971 20.256 23.6197L18.9804 22.344C18.8255 22.1891 18.8255 21.9379 18.9804 21.783L19.3897 21.3737ZM33.2485 24.0118L34.3838 25.1472C34.5387 25.3021 34.5387 25.5533 34.3838 25.7082L29.2645 30.8275C29.1096 30.9825 28.8584 30.9825 28.7035 30.8276C28.7035 30.8276 28.7035 30.8276 28.7035 30.8276L25.0702 27.1942C25.0314 27.1555 24.9686 27.1555 24.9299 27.1942C24.9299 27.1942 24.9299 27.1942 24.9299 27.1942L21.2966 30.8275C21.1417 30.9825 20.8905 30.9825 20.7356 30.8276C20.7356 30.8276 20.7356 30.8276 20.7356 30.8276L15.6162 25.7081C15.4613 25.5532 15.4613 25.302 15.6162 25.1471L16.7515 24.0118C16.9064 23.8569 17.1576 23.8569 17.3126 24.0118L20.946 27.6452C20.9847 27.6839 21.0475 27.6839 21.0862 27.6452C21.0862 27.6452 21.0862 27.6452 21.0862 27.6452L24.7194 24.0118C24.8743 23.8568 25.1255 23.8568 25.2805 24.0118C25.2805 24.0118 25.2805 24.0118 25.2805 24.0118L28.9139 27.6452C28.9526 27.6839 29.0154 27.6839 29.0541 27.6452L32.6874 24.0118C32.8424 23.8569 33.0936 23.8569 33.2485 24.0118Z" fill="white"/>
</g>
<defs>
<filter id="filter0_dd_111_2116" x="5.24521e-06" y="5.24521e-06" width="50" height="55" filterUnits="userSpaceOnUse" color-interpolation-filters="sRGB">
<feFlood flood-opacity="0" result="BackgroundImageFix"/>
<feColorMatrix in="SourceAlpha" type="matrix" values="0 0 0 0 0 0 0 0 0 0 0 0 0 0 0 0 0 0 127 0" result="hardAlpha"/>
<feOffset dy="4.99999"/>
<feGaussianBlur stdDeviation="2.5"/>
<feComposite in2="hardAlpha" operator="out"/>
<feColorMatrix type="matrix" values="0 0 0 0 0.0627451 0 0 0 0 0.0627451 0 0 0 0 0.0627451 0 0 0 0.05 0"/>
<feBlend mode="normal" in2="BackgroundImageFix" result="effect1_dropShadow_111_2116"/>
<feColorMatrix in="SourceAlpha" type="matrix" values="0 0 0 0 0 0 0 0 0 0 0 0 0 0 0 0 0 0 127 0" result="hardAlpha"/>
<feOffset/>
<feGaussianBlur stdDeviation="2.5"/>
<feComposite in2="hardAlpha" operator="out"/>
<feColorMatrix type="matrix" values="0 0 0 0 0.0627451 0 0 0 0 0.0627451 0 0 0 0 0.0627451 0 0 0 0.1 0"/>
<feBlend mode="normal" in2="effect1_dropShadow_111_2116" result="effect2_dropShadow_111_2116"/>
<feBlend mode="normal" in="SourceGraphic" in2="effect2_dropShadow_111_2116" result="shape"/>
</filter>
</defs>
</svg>
