<svg width="24" height="24" viewBox="0 0 24 24" fill="none" xmlns="http://www.w3.org/2000/svg">
<path d="M22.5595 12.25C22.5595 11.47 22.4895 10.72 22.3595 10H11.9995V14.255H17.9195C17.6645 15.63 16.8895 16.795 15.7245 17.575V20.335H19.2795C21.3595 18.42 22.5595 15.6 22.5595 12.25Z" fill="#4285F4"/>
<path d="M11.9984 22.9998C14.9684 22.9998 17.4584 22.0148 19.2784 20.3348L15.7234 17.5748C14.7384 18.2348 13.4784 18.6248 11.9984 18.6248C9.13345 18.6248 6.70845 16.6898 5.84345 14.0898H2.16846V16.9398C3.97845 20.5348 7.69845 22.9998 11.9984 22.9998Z" fill="#34A853"/>
<path d="M5.84475 14.0901C5.62475 13.4301 5.49975 12.7251 5.49975 12.0001C5.49975 11.2751 5.62475 10.5701 5.84475 9.91006V7.06006H2.16976C1.39976 8.59292 0.999077 10.2847 0.999757 12.0001C0.999757 13.7751 1.42476 15.4551 2.16976 16.94L5.84475 14.0901Z" fill="#FBBC05"/>
<path d="M11.9984 5.375C13.6134 5.375 15.0634 5.92999 16.2034 7.01999L19.3584 3.865C17.4534 2.09 14.9634 1 11.9984 1C7.69845 1 3.97845 3.465 2.16846 7.05999L5.84345 9.90999C6.70845 7.30999 9.13345 5.375 11.9984 5.375Z" fill="#EA4335"/>
</svg>
