<svg width="16" height="16" viewBox="0 0 16 16" fill="none" xmlns="http://www.w3.org/2000/svg">
<path fill-rule="evenodd" clip-rule="evenodd" d="M0.719671 0.21967C1.01256 -0.0732233 1.48744 -0.0732233 1.78033 0.21967L15.7803 14.2197C16.0732 14.5126 16.0732 14.9874 15.7803 15.2803C15.4874 15.5732 15.0126 15.5732 14.7197 15.2803L0.719671 1.28033C0.426777 0.987437 0.426777 0.512563 0.719671 0.21967Z" fill="#101010" fill-opacity="0.8"/>
<path fill-rule="evenodd" clip-rule="evenodd" d="M15.7803 0.21967C15.4874 -0.0732233 15.0126 -0.0732233 14.7197 0.21967L0.71967 14.2197C0.426777 14.5126 0.426777 14.9874 0.71967 15.2803C1.01256 15.5732 1.48744 15.5732 1.78033 15.2803L15.7803 1.28033C16.0732 0.987437 16.0732 0.512563 15.7803 0.21967Z" fill="#101010" fill-opacity="0.8"/>
</svg>
