<svg width="19" height="20" viewBox="0 0 19 20" fill="none" xmlns="http://www.w3.org/2000/svg">
<g clip-path="url(#clip0_448_2828)">
<path fill-rule="evenodd" clip-rule="evenodd" d="M19 0.5H0V19.5H19V0.5ZM10.079 6.10869V8.57896L14.1585 6.97031V8.79788C14.1585 9.18991 13.9298 9.54048 13.5854 9.67628L10.079 11.059V9.23509C10.0767 8.84551 9.84853 8.49783 9.5059 8.36274L6.57263 7.20603C6.22823 7.07021 5.99951 6.71964 5.99951 6.32761V4.50003L10.079 6.10869ZM10.079 11.0699V11.5459H10.0848V16.7081H8.404V12.8894L6.57263 12.1672C6.22823 12.0314 5.99951 11.6809 5.99951 11.2888V9.46124L10.079 11.0699Z" fill="white"/>
</g>
<defs>
<clipPath id="clip0_448_2828">
<rect y="0.5" width="19" height="19" rx="5" fill="white"/>
</clipPath>
</defs>
</svg>
