<svg width="36" height="37" viewBox="0 0 36 37" fill="none" xmlns="http://www.w3.org/2000/svg">
<path d="M18 4.25C9.735 4.25 3 10.985 3 19.25C3 27.515 9.735 34.25 18 34.25C26.265 34.25 33 27.515 33 19.25C33 10.985 26.265 4.25 18 4.25ZM23.04 22.7C23.475 23.135 23.475 23.855 23.04 24.29C22.815 24.515 22.53 24.62 22.245 24.62C21.96 24.62 21.675 24.515 21.45 24.29L18 20.84L14.55 24.29C14.325 24.515 14.04 24.62 13.755 24.62C13.47 24.62 13.185 24.515 12.96 24.29C12.525 23.855 12.525 23.135 12.96 22.7L16.41 19.25L12.96 15.8C12.525 15.365 12.525 14.645 12.96 14.21C13.395 13.775 14.115 13.775 14.55 14.21L18 17.66L21.45 14.21C21.885 13.775 22.605 13.775 23.04 14.21C23.475 14.645 23.475 15.365 23.04 15.8L19.59 19.25L23.04 22.7Z" fill="#DA4343"/>
</svg>
