<svg width="107" height="108" viewBox="0 0 107 108" fill="none" xmlns="http://www.w3.org/2000/svg">
<g filter="url(#filter0_d_1042_3759)">
<rect x="6" y="6.5" width="95" height="95" rx="47.5" fill="#2C5FF6" shape-rendering="crispEdges"/>
<path fill-rule="evenodd" clip-rule="evenodd" d="M53.5005 87.2505C71.864 87.2505 86.7505 72.364 86.7505 54.0005C86.7505 35.637 71.864 20.7505 53.5005 20.7505C35.137 20.7505 20.2505 35.637 20.2505 54.0005C20.2505 72.364 35.137 87.2505 53.5005 87.2505ZM45.1885 43.1439C43.7831 43.1439 42.6439 44.2831 42.6439 45.6885V62.3135C42.6439 63.7189 43.7831 64.8581 45.1885 64.8581H61.8135C63.2189 64.8581 64.3581 63.7189 64.3581 62.3135V45.6885C64.3581 44.2831 63.2189 43.1439 61.8135 43.1439H45.1885Z" fill="white"/>
</g>
<defs>
<filter id="filter0_d_1042_3759" x="-4.76837e-07" y="0.5" width="107" height="107" filterUnits="userSpaceOnUse" color-interpolation-filters="sRGB">
<feFlood flood-opacity="0" result="BackgroundImageFix"/>
<feColorMatrix in="SourceAlpha" type="matrix" values="0 0 0 0 0 0 0 0 0 0 0 0 0 0 0 0 0 0 127 0" result="hardAlpha"/>
<feOffset/>
<feGaussianBlur stdDeviation="3"/>
<feComposite in2="hardAlpha" operator="out"/>
<feColorMatrix type="matrix" values="0 0 0 0 1 0 0 0 0 1 0 0 0 0 1 0 0 0 0.08 0"/>
<feBlend mode="normal" in2="BackgroundImageFix" result="effect1_dropShadow_1042_3759"/>
<feBlend mode="normal" in="SourceGraphic" in2="effect1_dropShadow_1042_3759" result="shape"/>
</filter>
</defs>
</svg>
