<svg width="28" height="28" viewBox="0 0 28 28" fill="none" xmlns="http://www.w3.org/2000/svg">
<rect width="28" height="28" rx="6" fill="#3B99FC"/>
<path d="M8.38969 10.3737C11.4882 7.27518 16.5118 7.27518 19.6103 10.3737L19.9832 10.7466C20.1382 10.9015 20.1382 11.1527 19.9832 11.3076L18.7076 12.5833C18.6301 12.6607 18.5045 12.6607 18.4271 12.5833L17.9139 12.0701C15.7523 9.90851 12.2477 9.90851 10.0861 12.0701L9.53655 12.6197C9.45909 12.6971 9.3335 12.6971 9.25604 12.6197L7.98039 11.344C7.82547 11.1891 7.82547 10.9379 7.98039 10.783L8.38969 10.3737ZM22.2485 13.0118L23.3838 14.1472C23.5387 14.3021 23.5387 14.5533 23.3838 14.7082L18.2645 19.8275C18.1096 19.9825 17.8584 19.9825 17.7035 19.8276C17.7035 19.8276 17.7035 19.8276 17.7035 19.8276L14.0702 16.1942C14.0314 16.1555 13.9686 16.1555 13.9299 16.1942C13.9299 16.1942 13.9299 16.1942 13.9299 16.1942L10.2966 19.8275C10.1417 19.9825 9.89053 19.9825 9.73561 19.8276C9.7356 19.8276 9.7356 19.8276 9.7356 19.8276L4.61619 14.7081C4.46127 14.5532 4.46127 14.302 4.61619 14.1471L5.75152 13.0118C5.90645 12.8569 6.15763 12.8569 6.31255 13.0118L9.94595 16.6452C9.98468 16.6839 10.0475 16.6839 10.0862 16.6452C10.0862 16.6452 10.0862 16.6452 10.0862 16.6452L13.7194 13.0118C13.8743 12.8568 14.1255 12.8568 14.2805 13.0118C14.2805 13.0118 14.2805 13.0118 14.2805 13.0118L17.9139 16.6452C17.9526 16.6839 18.0154 16.6839 18.0541 16.6452L21.6874 13.0118C21.8424 12.8569 22.0936 12.8569 22.2485 13.0118Z" fill="white"/>
</svg>
